<svg id="Layer_1" data-name="Layer 1" xmlns="http://www.w3.org/2000/svg" viewBox="0 0 1000 1000"><defs><style>.cls-1{fill:#f91719;}.cls-2{fill:#3ae356;}.cls-3{fill:#100709;}</style></defs><title>Artboard 1</title><path class="cls-1" d="M447.67,487.82a138,138,0,0,1,126.58-242.7l.53.19V74.3H338A84.75,84.75,0,0,0,253.35,159V925.71h135.3V771.07a87,87,0,0,1,86.86-86.85h99.27V504l-.53.2A138.14,138.14,0,0,1,447.67,487.82Z"/><path class="cls-2" d="M675.37,74.3h-49.3V318.81l-69.51-25.55a86.74,86.74,0,1,0,0,162.78l69.51-25.53v495.2H760.42L760,158.91A84.77,84.77,0,0,0,675.37,74.3Z"/><path class="cls-3" d="M681.27,23.14H332.11c-72.23,3.1-130,62.83-130,135.82V977H439.94V771.07a35.61,35.61,0,0,1,35.57-35.56h99.27V977h237V158.89C811.69,85.94,753.48,26.24,681.27,23.14ZM574.78,684.22H475.51a87,87,0,0,0-86.86,86.85V925.71H253.35V159A84.75,84.75,0,0,1,338,74.3H574.78v171l-.53-.19a138,138,0,1,0,0,259.07l.53-.2Zm51.29,241.49V430.51L556.56,456a86.74,86.74,0,1,1,0-162.78l69.51,25.55V74.3h49.3A84.77,84.77,0,0,1,760,158.91l.39,766.8Z"/></svg>